<svg class="img-fluid" id="outputsvg" xmlns="http://www.w3.org/2000/svg" style="transform: matrix(0.856831, 0, 0, 0.856831, 11.4809, 71.9685); transform-origin: 50% 50%; cursor: move; max-height: 345.04px; transition: transform 200ms ease-in-out 0s;" width="896" height="224" viewBox="0 0 8960 2240"><g id="l2eQvXCKlGg7ujHLf9KwxBO" fill="rgb(254,255,255)" style="transform: none;"><g><path id="pqS4A2xIy" d="M0 1120 l0 -1120 4480 0 4480 0 0 505 0 505 -33 0 c-54 0 -57 -10 -57 -170 0 -80 -5 -163 -10 -185 -17 -75 -99 -117 -225 -116 -63 0 -195 35 -195 51 0 5 5 20 11 33 10 23 14 24 53 15 22 -5 78 -8 123 -6 107 6 123 18 123 98 l0 57 -104 5 c-167 9 -256 63 -256 157 0 43 33 97 73 118 47 26 152 23 197 -5 44 -27 104 -29 131 -3 24 22 80 33 132 24 l37 -6 0 582 0 581 -4480 0 -4480 0 0 -1120z m799 256 c42 -42 42 -44 20 -48 l-24 -3 -3 -174 c-4 -248 -1 -246 -154 -94 -65 65 -118 122 -118 127 0 10 221 236 230 236 3 0 25 -20 49 -44z m5573 -77 c75 -39 127 -107 128 -169 0 -34 -53 -97 -97 -115 -25 -11 -74 -15 -169 -15 l-134 0 -6 -25 c-3 -14 -3 -41 1 -61 l6 -36 73 7 c84 8 159 -10 213 -51 53 -40 67 -69 68 -138 l0 -61 43 -3 c38 -3 42 -5 42 -31 l0 -27 -95 4 c-66 3 -105 0 -128 -9 -75 -32 -202 -4 -259 57 -62 67 -67 128 -14 197 33 43 33 74 0 139 -25 49 -25 53 -10 79 26 44 20 81 -19 119 -19 19 -35 42 -35 51 0 21 44 75 74 91 48 27 265 25 318 -3z m-2883 -3 c15 -8 42 -31 59 -50 30 -34 31 -39 25 -98 l-5 -63 53 -20 c106 -39 171 -137 147 -218 -12 -39 -66 -107 -85 -107 -6 0 -16 -6 -22 -14 -7 -8 -57 -33 -111 -56 -126 -53 -150 -74 -150 -134 0 -36 5 -48 26 -65 23 -18 41 -21 118 -21 50 0 105 4 123 9 30 9 32 7 42 -22 6 -17 8 -34 4 -38 -14 -14 -125 -39 -171 -39 -111 0 -211 52 -244 127 -28 63 -18 103 40 166 43 46 83 70 197 116 98 40 115 59 115 124 0 43 -4 55 -26 74 -14 12 -46 25 -71 29 -48 7 -203 0 -239 -11 -15 -5 -23 -2 -26 12 -3 10 -9 25 -12 34 -9 22 63 49 129 49 28 0 56 4 62 8 7 5 16 35 19 68 7 62 0 79 -43 102 -13 8 -13 12 -2 30 16 26 13 26 48 8z m-3097 -103 l-3 -48 115 -115 c80 -79 116 -122 116 -137 l0 -23 -180 0 -180 0 0 185 0 185 68 0 67 0 -3 -47z m858 -20 l0 -68 -47 3 -48 3 -120 -120 c-66 -67 -128 -121 -137 -121 -17 0 -18 15 -18 185 l0 185 185 0 185 0 0 -67z m4065 -88 c97 -17 184 -82 206 -155 17 -55 -8 -118 -64 -164 -43 -35 -152 -93 -221 -117 -83 -30 -116 -124 -58 -169 25 -21 35 -22 150 -18 67 3 124 2 126 -1 2 -3 6 -17 9 -31 6 -23 2 -27 -36 -39 -84 -26 -142 -30 -206 -15 -153 35 -223 132 -172 238 29 58 108 117 197 146 107 35 154 75 154 131 0 94 -34 112 -202 107 -68 -2 -130 -7 -138 -11 -11 -5 -18 2 -26 28 -15 47 -4 54 103 70 87 13 100 13 178 0z m1674 4 c80 -26 95 -34 140 -79 60 -60 86 -133 79 -222 -6 -66 -40 -149 -74 -179 -57 -50 -175 -83 -240 -69 -100 23 -170 70 -209 142 -27 48 -30 62 -29 138 1 110 24 164 90 214 43 33 79 48 144 59 46 8 63 7 99 -4z m1213 -1 l59 -12 -3 -36 -3 -35 -90 -3 c-70 -2 -93 -6 -102 -19 -9 -12 -13 -66 -13 -185 l0 -168 95 0 95 0 0 -40 0 -40 -95 0 -95 0 0 -60 0 -60 -60 0 -60 0 0 60 0 60 -45 0 -45 0 0 40 0 40 44 0 44 0 4 178 c5 255 13 266 202 291 6 0 36 -4 68 -11z m-6188 -24 c3 -9 6 -57 6 -108 l0 -92 93 -12 c121 -15 158 -26 209 -65 61 -47 102 -117 102 -175 -1 -64 -42 -144 -96 -182 -68 -50 -125 -61 -294 -58 l-149 3 -3 340 c-1 187 0 346 3 352 7 20 121 17 129 -3z m596 -99 l38 -110 146 -3 c170 -3 160 -9 197 123 13 44 27 86 32 93 6 7 32 12 64 12 40 0 54 -3 50 -12 -2 -7 -26 -76 -52 -153 -26 -77 -75 -216 -107 -310 -33 -93 -63 -183 -67 -200 l-7 -30 -103 0 -104 0 -47 140 c-26 77 -66 194 -89 260 -48 138 -101 297 -101 302 0 2 25 3 57 1 l56 -3 37 -110z m1400 73 c7 -24 24 -76 39 -116 l26 -72 149 2 149 3 37 110 37 110 56 3 c31 2 57 -1 57 -5 0 -4 -23 -73 -51 -153 -27 -80 -54 -158 -58 -175 -11 -41 -90 -266 -101 -286 -5 -9 -12 -33 -15 -53 l-7 -36 -103 0 -104 0 -24 77 c-14 43 -57 170 -97 283 -39 113 -75 219 -79 235 -5 17 -16 47 -25 69 -9 21 -16 40 -16 42 0 2 26 4 58 4 l59 0 13 -42z m1810 -223 l0 -265 -60 0 -60 0 0 265 0 265 60 0 60 0 0 -265z m1672 63 l3 -202 33 -19 c21 -12 60 -22 102 -25 59 -4 69 -7 74 -26 12 -45 7 -66 -17 -66 -27 0 -99 37 -110 56 -5 8 -24 14 -47 14 -38 0 -40 -2 -40 -30 l0 -30 -65 0 -65 0 0 265 0 265 65 0 65 0 2 -202z m-6179 -13 c64 -63 117 -119 117 -123 0 -4 -20 -28 -45 -52 l-45 -44 0 32 0 32 -177 0 c-152 0 -179 2 -195 17 -18 16 -14 21 99 135 65 65 120 118 124 118 3 0 58 -52 122 -115z m-969 -85 c159 0 174 -2 191 -20 17 -18 14 -22 -100 -132 -65 -62 -122 -113 -126 -113 -5 0 -60 51 -124 114 l-115 115 42 43 43 44 8 -26 9 -25 172 0z m276 -340 l0 -180 -180 0 -180 0 0 63 0 62 44 -3 43 -4 124 121 c68 67 130 121 136 121 10 0 13 -42 13 -180z m630 0 l0 -180 -65 0 -65 0 0 43 c0 41 -4 46 -120 162 -66 66 -120 128 -120 137 0 17 15 18 185 18 l185 0 0 -180z m-372 -257 l-123 -122 -48 47 c-47 46 -47 47 -23 50 l26 3 0 172 c0 158 1 172 20 193 l21 21 125 -121 124 -121 -122 -122z m5427 213 c28 -13 58 -32 68 -43 15 -18 16 -22 3 -32 -12 -10 -22 -10 -47 3 -48 24 -163 22 -199 -4 -27 -19 -29 -19 -50 -2 l-23 19 34 25 c80 61 138 70 214 34z"></path><path id="pihThLzjA" d="M6135 1248 c-49 -18 -56 -32 -53 -100 l3 -63 149 -3 c176 -3 186 1 186 78 0 47 -20 80 -48 80 -7 0 -12 5 -12 10 0 14 -186 12 -225 -2z"></path><path id="pqrUxpkL4" d="M6132 817 c-18 -19 -22 -35 -22 -86 0 -73 10 -95 50 -116 56 -29 156 -10 179 33 6 12 11 47 11 80 0 45 -5 66 -21 86 -19 24 -26 26 -98 26 -68 0 -80 -3 -99 -23z"></path><path id="p19o4Q43Ds" d="M6845 1001 c-55 -23 -79 -92 -73 -205 7 -135 44 -176 157 -176 126 0 151 33 151 195 0 163 -26 196 -153 194 -34 0 -71 -4 -82 -8z"></path><path id="p1GYPUjjYD" d="M2018 768 c-2 -7 -4 -80 -3 -163 l0 -150 70 -3 c94 -3 162 15 189 51 27 37 35 151 13 193 -27 52 -49 64 -138 74 -110 13 -126 12 -131 -2z"></path><path id="p181c9XQMN" d="M2708 774 c-19 -19 -9 -93 35 -256 21 -77 21 -78 53 -78 30 0 34 4 45 43 7 23 21 69 31 102 11 33 22 88 25 123 l6 62 -44 0 c-24 0 -66 3 -94 6 -27 3 -53 3 -57 -2z"></path><path id="pRFbg9o83" d="M4188 773 l-68 -4 0 -37 c0 -20 5 -53 11 -72 6 -19 21 -75 33 -125 l23 -90 34 -3 c33 -3 35 -1 46 40 6 24 23 87 38 141 14 53 25 110 23 125 -3 30 -12 32 -140 25z"></path><path id="p1ETlEzhwu" d="M8527 996 c-11 -11 -17 -33 -17 -61 0 -56 8 -75 30 -75 11 0 22 -4 25 -10 3 -5 46 -10 96 -10 l89 0 0 74 c0 41 -5 78 -10 81 -6 4 -52 9 -103 12 -79 5 -95 3 -110 -11z"></path></g></g><g id="l2aDPBdJ3pDjtyHAXWagrtv" fill="rgb(0,147,201)" style="transform: none;"><g><path id="p17XwuQAYl" d="M3770 2122 c-72 -4 -90 -10 -90 -32 0 -24 1 -24 44 -4 43 21 99 12 131 -21 22 -21 44 -90 32 -101 -2 -3 -20 4 -38 15 -92 56 -191 -7 -191 -120 1 -62 18 -97 61 -126 36 -24 114 -32 126 -13 3 6 15 10 26 10 10 0 19 -4 19 -10 0 -5 9 -10 21 -10 20 0 20 4 17 169 -3 169 -3 170 -30 198 -34 36 -71 49 -128 45z m64 -163 c32 -15 56 -66 56 -119 0 -94 -111 -134 -167 -61 -7 9 -13 43 -13 75 0 52 4 64 27 88 29 30 57 35 97 17z"></path><path id="pILeZ50cV" d="M1870 1790 l0 -210 80 0 c120 0 170 34 170 114 0 32 -7 45 -39 76 -33 31 -37 40 -26 51 7 8 36 51 64 97 l51 82 -29 0 c-26 0 -34 -9 -75 -79 -48 -82 -80 -106 -128 -99 -22 3 -23 6 -23 91 0 84 -1 87 -22 87 l-23 0 0 -210z m176 -41 c28 -27 32 -74 7 -101 -23 -26 -129 -26 -137 0 -9 28 -4 106 8 121 16 20 92 8 122 -20z"></path><path id="pGDhLx7z8" d="M2226 1975 c-47 -43 -28 -114 37 -133 17 -6 53 -13 80 -17 26 -3 47 -11 47 -16 0 -15 -21 -53 -34 -61 -19 -13 -71 -9 -92 7 -26 20 -44 19 -44 -4 0 -41 121 -55 178 -21 l32 20 0 125 c0 120 -1 125 -21 125 -12 0 -23 -8 -26 -20 -5 -20 -5 -20 -30 0 -36 28 -93 26 -127 -5z m127 -25 c14 -11 29 -34 32 -51 8 -36 -7 -58 -28 -41 -7 6 -22 10 -32 10 -11 -1 -32 2 -47 5 -23 6 -28 13 -28 39 0 55 55 75 103 38z"></path><path id="pqsR6UXLo" d="M2530 1780 l0 -221 23 3 c21 3 22 7 19 73 -2 38 0 80 3 93 l6 23 26 -21 c37 -29 100 -27 136 4 27 23 28 28 34 145 l6 121 -26 0 -25 0 -4 -109 c-2 -90 -6 -113 -22 -130 -35 -38 -96 -20 -126 37 -7 15 -10 57 -9 110 3 83 2 87 -19 90 l-22 3 0 -221z"></path><path id="p8CwtM7Kr" d="M2876 1979 c-20 -16 -26 -29 -26 -59 0 -48 32 -76 98 -86 72 -10 93 -20 85 -41 -18 -52 -71 -68 -123 -38 -33 19 -40 18 -40 -3 0 -57 182 -53 204 4 3 7 6 64 7 126 2 109 1 113 -20 116 -16 3 -24 -3 -28 -17 -5 -21 -5 -21 -30 -1 -34 26 -93 26 -127 -1z m128 -34 c30 -27 38 -95 12 -95 -8 0 -18 5 -21 10 -3 6 -24 10 -46 10 -33 0 -41 4 -50 26 -23 63 51 99 105 49z"></path><path id="pxcqT1qvh" d="M3217 1976 c-26 -24 -27 -29 -27 -130 l0 -105 -27 -3 c-16 -2 -28 -7 -28 -13 0 -5 12 -11 28 -13 23 -3 27 -8 27 -37 0 -31 13 -45 41 -45 5 0 9 18 9 40 l0 40 41 0 c52 0 48 24 -4 28 l-37 3 0 103 c0 111 9 134 51 123 15 -4 19 -1 17 11 -5 28 -60 27 -91 -2z"></path><path id="pz32IHp8M" d="M3390 1780 c0 -213 1 -220 20 -220 19 0 20 7 20 220 0 213 -1 220 -20 220 -19 0 -20 -7 -20 -220z"></path><path id="pqcZc5pEk" d="M3537 1993 c-3 -5 -6 -70 -6 -145 l-2 -138 26 0 25 0 0 145 c0 137 -1 145 -19 145 -11 0 -22 -3 -24 -7z"></path><path id="pPANENpxo" d="M4020 1856 c0 -145 0 -146 23 -146 22 0 22 1 20 142 -1 137 -2 143 -22 146 -20 3 -21 0 -21 -142z"></path><path id="pmYGGPQAw" d="M4167 1993 c-7 -13 -8 -248 -1 -266 8 -21 44 -22 44 -2 0 19 19 19 44 0 34 -26 94 -19 127 14 29 29 29 31 29 146 0 115 0 116 -22 113 -22 -3 -23 -8 -26 -113 -2 -84 -7 -113 -19 -127 -30 -33 -102 -16 -122 29 -6 13 -11 66 -11 118 0 87 -2 95 -19 95 -11 0 -22 -3 -24 -7z"></path><path id="p10oVyuDin" d="M4507 1993 c-9 -8 -9 -246 -1 -267 3 -9 15 -16 25 -16 18 0 19 9 19 145 0 134 -1 145 -18 145 -10 0 -22 -3 -25 -7z"></path><path id="p1D8EBTt3s" d="M4610 1994 c0 -3 38 -59 85 -124 47 -65 85 -121 85 -124 0 -3 -35 -6 -77 -8 -120 -5 -90 -23 42 -26 63 -1 115 0 115 2 0 7 -127 183 -152 212 -33 38 -24 44 68 44 64 0 85 3 82 13 -3 8 -40 13 -126 15 -67 1 -122 0 -122 -4z"></path><path id="p14LrEF7BC" d="M4936 1979 c-20 -16 -26 -29 -26 -59 0 -49 27 -76 84 -85 91 -14 96 -16 96 -39 0 -50 -65 -72 -124 -41 -36 19 -36 19 -36 -3 0 -25 41 -42 101 -42 42 0 55 5 80 29 29 29 29 31 29 145 l0 116 -25 0 c-19 0 -25 -5 -25 -21 l0 -20 -26 20 c-16 13 -41 21 -64 21 -23 0 -48 -8 -64 -21z m126 -36 c20 -19 28 -37 28 -61 0 -31 -2 -34 -22 -28 -13 3 -40 9 -61 12 -50 9 -68 41 -43 79 22 33 62 33 98 -2z"></path><path id="pE7emjYze" d="M5356 1988 c13 -22 206 -304 229 -334 16 -22 -1 -27 -103 -25 -84 2 -100 -1 -106 -14 -3 -9 -4 -21 0 -26 5 -9 304 -13 304 -4 0 2 -12 22 -27 43 -61 86 -119 171 -169 245 l-53 77 120 0 119 0 0 25 0 25 -161 0 c-125 0 -159 -3 -153 -12z"></path><path id="pX1MRRGqV" d="M5781 1987 c-36 -18 -62 -58 -68 -105 l-6 -42 106 0 c58 0 108 -4 112 -9 9 -16 -15 -57 -45 -74 -35 -21 -76 -22 -114 -2 -36 19 -36 19 -36 -5 0 -26 36 -40 104 -40 45 0 58 5 91 33 32 28 38 40 43 85 6 70 -17 122 -68 151 -42 24 -83 27 -119 8z m95 -35 c23 -18 44 -53 44 -71 0 -7 -32 -11 -85 -11 -47 0 -85 2 -85 4 0 2 7 20 15 39 24 57 70 73 111 39z"></path><path id="ptULBMETR" d="M6060 1856 l0 -146 25 0 c16 0 25 6 25 15 0 8 4 15 9 15 5 0 14 -7 21 -15 19 -23 95 -20 120 5 11 11 23 20 26 20 3 0 17 -9 31 -20 17 -13 41 -20 68 -20 57 0 95 34 96 87 0 21 1 74 2 118 2 78 1 80 -22 80 -23 0 -24 -1 -22 -100 2 -90 0 -104 -20 -129 -28 -36 -73 -33 -103 7 -18 24 -21 44 -22 125 -1 91 -3 97 -23 100 -20 3 -21 0 -21 -101 0 -91 -3 -108 -21 -131 -27 -35 -73 -33 -101 5 -15 20 -19 45 -21 125 -2 94 -3 99 -24 102 -23 3 -23 3 -23 -142z"></path><path id="pauOi2F8H" d="M6597 1989 c-51 -30 -53 -102 -4 -134 18 -12 111 -34 145 -35 9 0 -1 -52 -14 -64 -19 -20 -74 -21 -100 -1 -26 20 -44 19 -44 -4 0 -56 182 -52 204 4 3 9 6 68 6 131 l0 114 -25 0 c-19 0 -25 -5 -25 -21 l0 -20 -26 20 c-29 23 -87 28 -117 10z m116 -41 c28 -26 41 -66 27 -87 -6 -11 -12 -12 -22 -4 -7 6 -31 11 -53 11 -59 2 -79 44 -43 90 16 19 65 14 91 -10z"></path><path id="p1sQEUPBg" d="M6889 1996 c-2 -2 -3 -68 -1 -145 3 -129 5 -141 21 -141 11 0 21 9 24 21 l6 21 27 -21 c18 -14 41 -21 69 -21 36 0 48 5 69 31 15 17 26 43 26 60 4 190 3 194 -21 194 -21 0 -22 -3 -20 -85 2 -103 -8 -141 -40 -159 -36 -20 -76 -7 -99 32 -16 26 -20 50 -20 125 0 83 -2 92 -18 92 -10 0 -21 -2 -23 -4z"></path><path id="p1EQyEw736" d="M7244 1966 c-19 -19 -34 -44 -34 -57 0 -13 -3 -34 -6 -46 -6 -23 -5 -23 100 -23 103 0 106 -1 106 -22 -1 -63 -91 -99 -159 -63 -31 16 -33 16 -29 -2 5 -25 45 -43 101 -43 95 0 143 57 134 157 -8 80 -64 133 -143 133 -28 0 -44 -8 -70 -34z m137 -25 c16 -16 29 -39 29 -50 0 -20 -6 -21 -80 -21 -86 0 -94 6 -68 53 28 54 76 61 119 18z"></path><path id="pHNK9wgIo" d="M7577 1980 c-26 -21 -27 -24 -27 -130 l0 -109 -27 -3 c-16 -2 -28 -7 -28 -13 0 -5 12 -11 28 -13 23 -3 27 -8 27 -37 0 -31 13 -45 41 -45 5 0 9 18 9 40 l0 40 41 0 c52 0 48 24 -4 28 l-37 3 0 103 c0 111 9 134 51 123 15 -4 19 -1 17 11 -5 26 -59 27 -91 2z"></path><path id="pjD3Ct3sG" d="M3752 1644 c-12 -8 -22 -22 -22 -30 0 -19 26 -18 34 1 3 9 19 15 41 15 22 0 38 -6 41 -15 8 -19 34 -20 34 -1 0 20 -44 46 -77 46 -16 0 -39 -7 -51 -16z"></path><path id="p1ClcibQtg" d="M620 1352 c-69 -70 -134 -137 -145 -150 l-19 -23 144 -144 c80 -80 150 -145 155 -145 6 0 23 13 38 28 26 27 27 28 29 202 l3 175 54 3 54 3 -89 90 c-49 49 -91 89 -94 89 -3 0 -61 -58 -130 -128z"></path><path id="pLBIAnOcb" d="M6115 1351 c-80 -8 -102 -18 -139 -62 -20 -23 -26 -41 -26 -78 0 -41 5 -52 35 -81 33 -32 34 -35 20 -57 -22 -33 -18 -87 9 -141 l24 -48 -29 -38 c-75 -101 -31 -246 90 -298 59 -25 154 -33 211 -18 69 19 129 22 195 12 33 -6 61 -9 61 -8 1 0 4 28 5 61 l4 60 -45 5 -45 5 3 43 c10 131 -108 218 -284 210 -58 -2 -74 0 -77 12 -9 37 2 40 138 40 153 0 187 10 234 67 26 32 31 46 31 93 0 32 -8 72 -19 97 -22 47 -85 98 -140 112 -54 14 -178 20 -256 12z m215 -131 c0 -5 5 -10 12 -10 18 0 48 -31 48 -50 0 -9 -8 -24 -19 -34 -15 -14 -37 -16 -137 -14 l-119 3 -3 33 c-4 36 10 54 53 70 38 13 165 15 165 2z m-31 -436 c41 -53 20 -123 -43 -144 -62 -20 -116 23 -116 91 0 50 33 79 91 79 39 0 51 -4 68 -26z"></path><path id="p1xteJS5e" d="M450 1238 l-23 -33 31 29 c34 31 37 36 24 36 -5 0 -19 -15 -32 -32z"></path><path id="pyfre8nG" d="M430 1155 c0 -6 52 -62 116 -125 64 -63 111 -106 106 -95 -14 27 -222 232 -222 220z"></path><path id="pVF0UvZ1P" d="M5109 1116 c-47 -7 -97 -21 -111 -30 l-27 -17 20 -46 c10 -24 19 -51 19 -58 0 -23 15 -25 74 -10 69 18 202 20 239 3 36 -17 53 -59 36 -86 -15 -24 -84 -63 -143 -82 -164 -53 -246 -171 -211 -305 16 -63 90 -117 193 -141 79 -19 154 -13 255 17 54 17 68 25 63 38 -37 113 -36 113 -75 107 -20 -3 -74 -9 -121 -12 -78 -6 -87 -4 -112 16 -16 12 -28 25 -28 30 0 20 51 66 86 79 65 23 176 81 217 114 74 58 98 167 56 253 -29 62 -120 124 -180 124 -15 0 -30 4 -33 8 -8 13 -121 12 -217 -2z"></path><path id="p148AlxB1L" d="M6860 1123 c-98 -17 -181 -70 -207 -132 -63 -148 -34 -343 61 -414 44 -33 124 -65 182 -72 83 -11 211 24 268 74 48 43 90 183 79 271 -9 79 -38 143 -84 190 -45 45 -60 53 -140 79 -34 11 -108 13 -159 4z m124 -153 c46 -17 66 -65 66 -155 0 -62 -4 -87 -20 -113 -32 -51 -101 -68 -160 -37 -94 49 -90 267 5 306 28 11 79 11 109 -1z"></path><path id="powSiYAyC" d="M8036 1119 c-114 -17 -129 -50 -134 -281 l-4 -178 -44 0 -44 0 0 -70 0 -70 45 0 45 0 0 -60 0 -60 90 0 90 0 0 60 0 60 95 0 95 0 0 70 0 70 -95 0 -95 0 0 138 c0 178 -2 175 114 171 98 -4 89 -12 101 89 l6 52 -31 0 c-16 0 -30 4 -30 9 0 11 -128 11 -204 0z"></path><path id="p6LobuhJt" d="M8518 1119 c-115 -17 -158 -63 -158 -170 0 -86 23 -122 96 -156 44 -20 77 -26 160 -31 l104 -5 0 -27 c0 -15 -9 -35 -19 -44 -28 -26 -114 -31 -195 -12 -38 9 -70 15 -71 14 -7 -12 -25 -69 -30 -99 l-7 -36 78 -23 c139 -41 306 -28 373 28 43 37 52 79 51 250 -1 149 4 172 41 172 16 0 19 8 19 58 0 32 -5 63 -12 70 -25 25 -155 11 -189 -21 l-22 -20 -41 21 c-23 12 -49 22 -58 22 -9 0 -20 5 -23 10 -7 11 -16 11 -97 -1z m194 -155 c4 -3 8 -25 8 -50 l0 -44 -59 0 c-33 0 -63 5 -66 10 -3 6 -14 10 -25 10 -32 0 -40 48 -13 75 14 14 28 16 82 11 35 -4 68 -9 73 -12z"></path><path id="p11R0SpIzE" d="M5753 1112 l-83 -3 0 -294 0 -295 90 0 90 0 0 294 c0 162 -3 296 -7 298 -5 2 -45 2 -90 0z"></path><path id="pr0BjgG2k" d="M7330 815 l0 -295 95 0 95 0 0 30 c0 32 13 40 27 16 16 -27 87 -56 138 -56 73 0 75 3 58 85 l-15 70 -67 0 c-49 0 -75 5 -101 21 l-35 20 -3 202 -2 202 -95 0 -95 0 0 -295z"></path><path id="pOuRulqfy" d="M1045 960 c-66 -66 -115 -120 -110 -120 6 0 64 54 130 120 66 66 115 120 110 120 -6 0 -64 -54 -130 -120z"></path><path id="p1AvQvJi0z" d="M1237 1046 c15 -19 32 -35 36 -35 5 -1 -4 14 -20 33 -15 19 -32 35 -36 35 -5 1 4 -14 20 -33z"></path><path id="p3DsLN7jT" d="M1040 895 l-150 -151 33 -32 33 -32 176 0 177 0 3 -60 3 -61 91 93 91 93 -153 150 -153 151 -151 -151z"></path><path id="pp3gHWtuB" d="M97 832 l-87 -88 145 -144 c80 -80 149 -146 153 -147 8 -3 302 281 302 291 0 4 -15 20 -32 36 l-33 29 -172 1 -173 0 -6 25 c-3 14 -4 39 0 55 3 17 2 30 -2 30 -4 0 -47 -40 -95 -88z"></path><path id="p13l5JdpsQ" d="M447 535 c-64 -63 -113 -115 -109 -115 4 0 60 52 123 115 63 63 112 115 109 115 -3 0 -58 -52 -123 -115z"></path><path id="pOc4zjNSh" d="M712 567 l-32 -33 0 -172 0 -172 -57 0 -58 0 95 -95 94 -94 148 146 c81 81 148 152 148 157 0 12 -288 296 -299 296 -4 0 -21 -15 -39 -33z"></path><path id="pGBizGTFc" d="M960 445 c63 -63 116 -112 119 -109 6 6 -215 224 -227 224 -3 0 45 -52 108 -115z"></path><path id="pp7zCK68u" d="M230 474 c0 -13 48 -59 55 -52 3 2 -9 17 -25 33 -17 16 -30 24 -30 19z"></path><path id="psCSkmYjK" d="M6115 425 c-48 -24 -105 -74 -105 -94 0 -11 83 -81 96 -81 5 1 25 14 44 30 53 46 123 41 187 -14 21 -18 22 -18 67 20 25 21 46 40 46 41 0 2 -15 20 -32 40 -74 82 -203 107 -303 58z"></path><path id="pkwiB3FIf" d="M1044 256 c-16 -13 -25 -28 -21 -32 4 -4 20 4 34 19 35 34 24 45 -13 13z"></path></g></g><g id="lA64nbbqNM7w6XnJ4xK5jR" fill="rgb(0,121,83)" style="transform: none;"><g><path id="p1C2pkRSw3" d="M3432 1347 c-5 -7 -21 -31 -36 -54 l-26 -43 29 -15 c49 -25 61 -42 54 -78 -8 -41 -17 -47 -80 -47 -58 0 -143 -32 -143 -54 0 -8 10 -40 22 -71 16 -43 25 -54 37 -50 82 32 196 44 257 26 69 -20 94 -71 54 -109 -23 -21 -30 -25 -175 -87 -67 -29 -140 -93 -161 -142 -8 -18 -14 -54 -14 -80 1 -144 121 -222 321 -211 91 5 199 34 199 54 0 12 -47 124 -52 124 -2 0 -28 -7 -58 -15 -30 -8 -83 -15 -117 -15 -51 0 -67 4 -90 24 -24 21 -26 27 -16 49 11 24 30 35 193 111 72 33 89 45 126 83 103 107 50 290 -102 347 l-51 19 5 62 c4 58 3 63 -28 99 -47 54 -131 95 -148 73z"></path><path id="p12ikUih81" d="M230 1055 l0 -215 212 2 211 3 0 49 c-1 48 -1 49 -117 165 -64 64 -116 121 -116 126 0 5 17 26 37 47 l37 38 -132 0 -132 0 0 -215z"></path><path id="pRNC3NaKd" d="M850 1055 l0 -215 48 0 c47 0 48 0 167 120 66 66 125 120 131 120 7 0 26 -16 43 -35 17 -19 33 -35 36 -35 3 0 5 59 5 130 l0 130 -215 0 -215 0 0 -215z"></path><path id="pAS3wUUnL" d="M1855 1097 c-3 -6 -4 -179 -3 -382 l3 -370 179 -3 c201 -3 253 6 324 58 64 46 96 117 97 211 0 67 -3 81 -30 124 -35 57 -99 110 -153 125 -20 6 -79 16 -129 22 l-93 12 0 92 c0 51 -3 99 -6 108 -5 13 -23 16 -95 16 -63 0 -91 -4 -94 -13z m307 -362 c74 -9 118 -73 104 -149 -11 -56 -40 -83 -101 -96 -30 -6 -68 -10 -85 -8 l-32 3 1 123 c0 67 0 126 1 131 0 6 15 8 33 6 17 -3 53 -7 79 -10z"></path><path id="pHaNLgF6I" d="M2410 1106 c0 -5 47 -146 119 -356 21 -63 51 -145 65 -182 14 -38 24 -68 22 -68 -2 0 9 -35 24 -78 l28 -77 133 0 133 0 8 30 c7 30 28 93 168 495 40 113 74 213 77 223 5 15 -4 17 -90 17 -64 0 -98 -4 -104 -12 -5 -7 -19 -49 -32 -93 -36 -130 -31 -126 -167 -123 l-116 3 -38 110 -37 110 -97 3 c-53 1 -96 1 -96 -2z m456 -401 c-4 -19 -15 -60 -25 -92 -10 -32 -24 -78 -31 -103 l-13 -45 -14 45 c-7 25 -15 53 -16 62 -2 10 -6 21 -10 24 -4 4 -7 19 -7 34 0 15 -5 41 -11 59 -18 50 -10 56 66 53 l67 -4 -6 -33z"></path><path id="p7i4lxk1S" d="M3837 1104 c-3 -4 6 -36 20 -73 14 -36 29 -79 33 -96 5 -16 41 -122 80 -235 40 -113 83 -240 97 -283 l24 -77 134 0 133 0 7 36 c3 20 10 44 15 53 11 20 90 245 101 286 4 17 35 109 68 205 34 96 61 178 61 183 0 4 -44 6 -97 5 l-96 -3 -37 -110 -37 -110 -119 -3 -119 -3 -26 73 c-15 40 -32 92 -39 116 l-13 42 -92 0 c-50 0 -94 -3 -98 -6z m442 -432 c-11 -37 -22 -80 -26 -97 -3 -16 -11 -48 -18 -70 -15 -44 -15 -44 -40 60 -10 39 -24 89 -31 113 -8 23 -14 47 -14 52 0 8 125 19 142 12 3 -1 -2 -33 -13 -70z"></path><path id="pur7kRZ70" d="M479 565 c-46 -47 -103 -102 -127 -121 l-44 -37 -39 39 -39 38 0 -129 0 -130 208 1 207 0 3 212 2 212 -43 0 c-42 0 -48 -4 -128 -85z"></path><path id="pY7I5pgW3" d="M850 602 c0 -47 0 -48 120 -167 66 -66 120 -125 120 -131 0 -6 -16 -24 -35 -38 -19 -15 -35 -30 -35 -34 0 -4 59 -7 130 -7 l130 -1 0 213 0 213 -215 0 -215 0 0 -48z"></path></g></g></svg>